<svg width="123" height="133" viewBox="0 0 123 133" fill="none" xmlns="http://www.w3.org/2000/svg">
<rect x="17.2804" y="17.2804" width="19.8986" height="98.4459" rx="9.94932" stroke="url(#paint0_linear)" stroke-width="19.8986"/>
<mask id="path-2-inside-1" fill="white">
<path d="M99.4151 1.64624C100.99 0.737046 103.004 1.2766 103.913 2.85137C114.224 20.7106 108.105 43.5472 90.2455 53.8583L37.9103 84.074C28.1933 89.6841 15.7682 86.3548 10.1581 76.6378C4.54795 66.9208 7.87724 54.4957 17.5943 48.8855L99.4151 1.64624Z"/>
</mask>
<path d="M68.2455 15.7532L15.9103 45.9689L59.9103 122.179L112.245 91.9634L68.2455 15.7532ZM39.5943 86.9907L121.415 39.7514L77.4151 -36.4589L-4.40573 10.7804L39.5943 86.9907ZM48.2632 54.6378C54.8033 65.9656 50.9221 80.4505 39.5943 86.9907L-4.40573 10.7804C-35.1676 28.5408 -45.7074 67.8759 -27.9471 98.6378L48.2632 54.6378ZM15.9103 45.9689C27.2382 39.4287 41.7231 43.31 48.2632 54.6378L-27.9471 98.6378C-10.1867 129.4 29.1484 139.94 59.9103 122.179L15.9103 45.9689ZM65.8076 24.8514C63.9684 21.6658 65.0599 17.5924 68.2455 15.7532L112.245 91.9634C151.15 69.5021 164.479 19.7555 142.018 -19.1486L65.8076 24.8514ZM142.018 -19.1486C128.958 -41.7683 100.035 -49.5183 77.4151 -36.4589L121.415 39.7514C101.945 50.9924 77.0487 44.3215 65.8076 24.8514L142.018 -19.1486Z" fill="url(#paint1_linear)" mask="url(#path-2-inside-1)"/>
<mask id="path-4-inside-2" fill="white">
<path d="M17.5942 84.0964C7.8772 78.4863 4.54791 66.0611 10.158 56.3441C15.7682 46.6271 28.1933 43.2978 37.9103 48.9079L89.9122 78.9312C107.956 89.3486 114.138 112.42 103.72 130.464C102.917 131.855 101.139 132.331 99.7483 131.528L17.5942 84.0964Z"/>
</mask>
<path d="M15.9103 87.013L67.9122 117.036L111.912 40.8261L59.9103 10.8028L15.9103 87.013ZM121.748 93.423L39.5942 45.9913L-4.40577 122.202L77.7483 169.633L121.748 93.423ZM65.6152 108.464C76.9625 88.8097 102.094 82.0756 121.748 93.423L77.7483 169.633C100.184 182.586 128.872 174.899 141.825 152.464L65.6152 108.464ZM67.9122 117.036C64.9107 115.303 63.8823 111.465 65.6152 108.464L141.825 152.464C164.393 113.376 151 63.3937 111.912 40.8261L67.9122 117.036ZM48.2632 78.3441C41.723 89.672 27.2382 93.5532 15.9103 87.013L59.9103 10.8028C29.1484 -6.9576 -10.1867 3.58224 -27.9471 34.3441L48.2632 78.3441ZM-27.9471 34.3441C-45.7075 65.106 -35.1677 104.441 -4.40577 122.202L39.5942 45.9913C50.9221 52.5314 54.8033 67.0163 48.2632 78.3441L-27.9471 34.3441Z" fill="url(#paint2_linear)" mask="url(#path-4-inside-2)"/>
<defs>
<linearGradient id="paint0_linear" x1="27.2297" y1="7.33105" x2="27.2297" y2="125.676" gradientUnits="userSpaceOnUse">
<stop stop-color="#FFC700"/>
<stop offset="1" stop-color="#FF0099"/>
</linearGradient>
<linearGradient id="paint1_linear" x1="112.425" y1="17.5942" x2="10.1581" y2="76.6378" gradientUnits="userSpaceOnUse">
<stop stop-color="#FFC700"/>
<stop offset="1" stop-color="#FF0099"/>
</linearGradient>
<linearGradient id="paint2_linear" x1="10.158" y1="56.3441" x2="112.425" y2="115.388" gradientUnits="userSpaceOnUse">
<stop stop-color="#FFC700"/>
<stop offset="1" stop-color="#FF0099"/>
</linearGradient>
</defs>
</svg>
